<svg xmlns="http://www.w3.org/2000/svg" width="410" height="404" viewBox="0 0 410 404" fill="none">
  <path d="M399.641 59.5246L215.643 388.545C211.844 395.338 202.084 395.378 198.228 388.618L10.5817 59.5563C6.38087 52.1896 12.6802 43.2665 21.0281 44.7586L205.223 77.6824C206.398 77.8924 207.601 77.8905 208.776 77.6767L389.119 44.8058C397.439 43.2894 403.768 52.1434 399.632 59.5303L399.641 59.5246Z" fill="url(#paint0_linear)"/>
  <path d="M292.965 1.5744L156.801 28.2552C155.492 28.5124 154.34 29.2524 153.6 30.3232L61.5102 165.601C60.1402 167.594 61.5762 170.278 63.9345 170.278H108.394C109.722 170.278 110.914 169.572 111.57 168.43L162.844 79.931C164.226 77.536 167.849 77.4995 169.286 79.8611L239.488 196.958C240.239 198.222 241.631 199 243.126 199H289.234C291.592 199 293.028 196.316 291.658 194.323L206.433 64.0359C205.066 62.0462 206.498 59.3702 208.85 59.3649L301.438 59.1651C303.79 59.1598 305.228 56.4725 303.861 54.4828L296.512 43.7317C295.737 42.5968 294.343 41.9032 292.965 42.1744Z" fill="url(#paint1_linear)"/>
  <defs>
    <linearGradient id="paint0_linear" x1="6.00017" y1="32.9999" x2="235" y2="344" gradientUnits="userSpaceOnUse">
      <stop stop-color="#41D1FF"/>
      <stop offset="1" stop-color="#BD34FE"/>
    </linearGradient>
    <linearGradient id="paint1_linear" x1="194.651" y1="8.81818" x2="236.076" y2="292.989" gradientUnits="userSpaceOnUse">
      <stop stop-color="#FFEA83"/>
      <stop offset="0.0833333" stop-color="#FFDD35"/>
      <stop offset="1" stop-color="#FFA800"/>
    </linearGradient>
  </defs>
</svg>
